<svg xmlns="http://www.w3.org/2000/svg" viewBox="0 0 200 200"><path d="m95 8-19 3a91 91 0 0 0-62 56 98 98 0 0 0-6 43 92 92 0 0 0 56 75 91 91 0 0 0 84-6 97 97 0 0 0 31-31 92 92 0 0 0 7-81A93 93 0 0 0 97 8z" style="fill:none;stroke:#fff;stroke-width:15.164;stroke-dasharray:none;stroke-opacity:1"/><path d="m147 97-24 42H75L51 97l24-42h48z" style="fill:none;stroke:#fff;stroke-width:15;stroke-dasharray:none;stroke-opacity:1" transform="rotate(-30 97 109)scale(1.0559)"/><path d="M100 50V8M143 75l37-22M143 125l37 21M100 150v42M57 125l-37 21M57 75 20 53" style="fill:none;stroke:#fff;stroke-width:15;stroke-dasharray:none;stroke-opacity:1"/><path d="m166 220-47-27q-2-1 5-10A325 325 0 0 1 344 60l6-1-1 54v54l-64 37-69 40-5 3zM476 207l-69-40V59l12 2a321 321 0 0 1 219 132l-91 53c-2 1-11-5-71-39zM622 484l-47-27V297l46-27 47-27 5 11a310 310 0 0 1 10 219c-2 9-13 37-14 38zM310 496l-68-40V300l68-40 68-39 68 39 68 39v158l-65 37-68 39-3 2zM408 643v-55l69-40 71-39s22 11 47 26l45 26-6 8c-15 20-38 44-55 58a325 325 0 0 1-168 69l-3 1zM337 695a320 320 0 0 1-213-123l-8-10 46-27 48-27 70 41 69 40v54l-1 54zM82 499c-31-74-32-158-4-233q10-24 11-22l47 26 46 26v161l-47 27-48 27z" style="fill:#000;stroke:#000;stroke-width:9.44882;stroke-linecap:round" transform="scale(.2646)"/></svg>